<?xml version="1.0" encoding="utf-8"?>
<svg version="1.1" viewBox="-5.0 -10.0 110.0 135.0" xmlns="http://www.w3.org/2000/svg">
  <defs/>
  <path d="m50 22.578c7.2734 0 14.246 2.8906 19.391 8.0312 5.1406 5.1445 8.0312 12.117 8.0312 19.391s-2.8906 14.246-8.0312 19.391c-5.1445 5.1406-12.117 8.0312-19.391 8.0312s-14.246-2.8906-19.391-8.0312c-5.1406-5.1445-8.0312-12.117-8.0312-19.391s2.8906-14.246 8.0312-19.391c5.1445-5.1406 12.117-8.0312 19.391-8.0312zm-23.852-12c-0.21875-0.21484-0.32422-0.51953-0.28906-0.82812 0.035156-0.30469 0.21094-0.57812 0.47656-0.73828 0.26562-0.16016 0.58984-0.1875 0.875-0.078125 0.28906 0.11328 0.51172 0.35156 0.59766 0.64453l4.7617 8.2383v0.003906c0.13281 0.4375-0.050781 0.91016-0.44141 1.1445s-0.89453 0.17578-1.2188-0.14453l-4.7617-8.2383zm-16.5 17.23c-0.32031-0.32422-0.37891-0.82422-0.14453-1.2188 0.23828-0.39062 0.70703-0.57031 1.1445-0.44141l8.2383 4.7617h0.003906c0.29688 0.089844 0.53125 0.30859 0.64453 0.59766 0.10938 0.28906 0.082032 0.60938-0.078125 0.875-0.15625 0.26563-0.42969 0.44141-0.73828 0.47656-0.30469 0.039063-0.61328-0.070313-0.82812-0.28906zm-5.6484 23.191c-0.55078 0-1-0.44922-1-1s0.44922-1 1-1h9.5195c0.42578 0.125 0.71875 0.51562 0.71875 0.96094 0 0.44531-0.29297 0.83594-0.71875 0.96094zm6.6484 22.891c-0.4375 0.13281-0.90625-0.050781-1.1445-0.44141-0.23438-0.39062-0.17578-0.89453 0.14453-1.2188l8.2383-4.7617h0.003906c0.21484-0.21875 0.52344-0.32422 0.82812-0.28906 0.30859 0.035156 0.58203 0.21094 0.73828 0.47656 0.16016 0.26562 0.1875 0.58984 0.078125 0.875-0.11328 0.28906-0.34766 0.50781-0.64453 0.59766l-8.2383 4.7617zm17.199 16.5h0.003906c-0.089843 0.29688-0.3125 0.53125-0.59766 0.64453-0.28906 0.10938-0.61328 0.082032-0.87891-0.078125-0.26172-0.15625-0.4375-0.42969-0.47656-0.73828-0.035157-0.30469 0.070312-0.61328 0.29297-0.82812l4.7617-8.2383-0.003906-0.003906c0.32422-0.32031 0.82812-0.37891 1.2188-0.14453 0.39062 0.23828 0.57422 0.70703 0.44141 1.1445l-4.7617 8.2383zm23.152 5.6094c0 0.55078-0.44922 1-1 1s-1-0.44922-1-1v-9.4805c0.125-0.42578 0.51562-0.71875 0.96094-0.71875 0.44531 0 0.83594 0.29297 0.96094 0.71875v9.4805zm22.891-6.6484c0.13281 0.4375-0.050781 0.90625-0.44141 1.1445-0.39062 0.23438-0.89453 0.17578-1.2188-0.14453l-4.7617-8.2383v-0.003906c-0.21875-0.21484-0.32422-0.52344-0.28906-0.82812 0.035156-0.30859 0.21094-0.58203 0.47656-0.73828 0.26562-0.16016 0.58984-0.1875 0.875-0.078125 0.28906 0.11328 0.50781 0.34766 0.59766 0.64453l4.7617 8.2383zm16.5-17.199v-0.003906c0.29688 0.089843 0.53125 0.3125 0.64453 0.59766 0.10938 0.28906 0.082032 0.61328-0.078125 0.87891-0.15625 0.26172-0.42969 0.4375-0.73828 0.47656-0.30469 0.035157-0.61328-0.070312-0.82812-0.29297l-8.2383-4.7617-0.003906 0.003906c-0.29297-0.089843-0.53125-0.30859-0.64453-0.59766-0.10938-0.28906-0.082031-0.61328 0.078125-0.875 0.16016-0.26562 0.42969-0.44141 0.73828-0.48047 0.30469-0.035156 0.61328 0.074219 0.82813 0.29297l8.2383 4.7617zm5.6094-23.152c0.55078 0 1 0.44922 1 1s-0.44922 1-1 1h-9.4805c-0.30078 0.089844-0.62891 0.027344-0.87891-0.16016-0.25391-0.1875-0.40234-0.48438-0.40234-0.80078 0-0.3125 0.14844-0.60937 0.40234-0.80078 0.25-0.1875 0.57812-0.24609 0.87891-0.16016zm-6.6094-22.852c0.21484-0.21875 0.52344-0.32422 0.82812-0.28906 0.30859 0.035156 0.58203 0.21094 0.73828 0.47656 0.16016 0.26562 0.1875 0.58984 0.078125 0.875-0.11328 0.28906-0.34766 0.51172-0.64453 0.59766l-8.2383 4.7617h-0.003906c-0.4375 0.13281-0.90625-0.050781-1.1445-0.44141-0.23438-0.39062-0.17578-0.89453 0.14453-1.2188l8.2383-4.7617zm-17.199-16.5c0.085938-0.29297 0.30859-0.53125 0.59766-0.64453 0.28516-0.10938 0.60938-0.082031 0.875 0.078125 0.26563 0.16016 0.44141 0.42969 0.47656 0.73828 0.035156 0.30469-0.070313 0.61328-0.28906 0.82813l-4.7617 8.2383v0.003906c-0.32422 0.32031-0.82812 0.37891-1.2188 0.14453s-0.57422-0.70703-0.44141-1.1445l4.7617-8.2383zm-23.191-5.6484c0-0.55078 0.44922-1 1-1s1 0.44922 1 1v9.5195c-0.125 0.42578-0.51562 0.71875-0.96094 0.71875-0.44531 0-0.83594-0.29297-0.96094-0.71875z" fill-rule="evenodd" style="fill: rgb(19, 19, 20);"/>
</svg>